<svg width="24" height="24" viewBox="0 0 24 24" fill="none" xmlns="http://www.w3.org/2000/svg">
<path d="M5 10V9C5 5.68629 7.68629 3 11 3C14.3137 3 17 5.68629 17 9V10H19C19.5523 10 20 10.4477 20 11V23C20 23.5523 19.5523 24 19 24H3C2.44772 24 2 23.5523 2 23V11C2 10.4477 2.44772 10 3 10H5ZM18 12H4V22H18V12ZM10 17.7324C9.4022 17.3866 9 16.7403 9 16C9 14.8954 9.8954 14 11 14C12.1046 14 13 14.8954 13 16C13 16.7403 12.5978 17.3866 12 17.7324V20H10V17.7324ZM7 10H15V9C15 6.79086 13.2091 5 11 5C8.79086 5 7 6.79086 7 9V10Z" fill="white" fill-opacity="0.5"/>
</svg>
