<svg width="24" height="24" viewBox="0 0 24 24" fill="none" xmlns="http://www.w3.org/2000/svg">
<path d="M19 24H17V22C17 20.3431 15.6569 19 14 19H8C6.34315 19 5 20.3431 5 22V24H3V22C3 19.2386 5.23858 17 8 17H14C16.7614 17 19 19.2386 19 22V24ZM11 15C7.68629 15 5 12.3137 5 9C5 5.68629 7.68629 3 11 3C14.3137 3 17 5.68629 17 9C17 12.3137 14.3137 15 11 15ZM11 13C13.2091 13 15 11.2091 15 9C15 6.79086 13.2091 5 11 5C8.79086 5 7 6.79086 7 9C7 11.2091 8.79086 13 11 13Z" fill="white" fill-opacity="0.5"/>
</svg>
