<svg width="16" height="21" viewBox="0 0 16 21" fill="none" xmlns="http://www.w3.org/2000/svg">
<path d="M8 0C3.58 0 0 4.69875 0 10.5C0 16.3013 3.58 21 8 21C12.42 21 16 16.3013 16 10.5C16 4.69875 12.42 0 8 0ZM8 2.625C8.66 2.625 9.28 2.86125 9.88 3.12375C9.46 3.64875 8.98 4.12125 9.06 4.59375C9.14 5.06625 10.44 4.935 10.44 5.90625C10.44 6.615 9.6 6.825 10.18 7.63875C10.88 8.5575 8.9 10.2112 8.86 11.4187C8.8 13.5975 10.54 13.965 11.92 13.965C12.76 13.965 12.98 14.49 12.92 15.12C11.84 17.1413 10 18.4013 7.98 18.4013C7.22 18.4013 6.52 18.165 5.86 17.8237C6.3 16.6688 5.3 14.385 4.36 13.65C3.9 13.0462 2.92 13.2825 2.36 12.9937C2.18 12.285 2 11.5763 1.98 10.7888C2.04 10.6575 2.14 10.5525 2.3 10.5525C2.68 10.5525 3.2 11.55 3.48 11.445C3.84 11.34 2 8.00625 2.86 7.35C3.26 7.035 4.06 8.37375 3.8 6.93C3.56 5.59125 4.52 6.195 5.12 5.85375C5.64 5.565 6.02 4.7775 5.38 4.305C5.26 4.22625 5.12 4.0425 4.94 3.80625C5.84 3.0975 6.88 2.65125 8 2.65125V2.625ZM12.62 5.48625C12.98 6.06375 13.26 6.69375 13.5 7.37625V7.455C13.42 7.63875 13.28 7.74375 13.06 8.0325C12.5 8.7675 12.42 7.48125 12.18 7.21875C11.92 6.90375 10.98 7.27125 10.86 6.8775C10.72 6.405 11.86 5.775 12.62 5.48625Z" fill="white" fill-opacity="0.5"/>
</svg>
